# xmcd
#
# Track frame offsets:
#	150
#	25608
#	52933
#	73378
#	96812
#	117426
#	140885
#	164847
#	192715
#	217039
#
# Disc length: 3140 seconds
#
# Revision: 0
# Processed by: cddbd v1.5.2PL0 Copyright (c) Steve Scherf et al.
# Submitted via: FairStars CD Ripper 1.90
#
DISCID=a20c420a
DTITLE=Cam ly and Quoc Dai - Nguoi tinh que
DYEAR=2013
DGENRE=Blues
TTITLE0=Cam ly - Nguoi tinh que
TTITLE1=Quoc Dai - Xa que
TTITLE2=Cam ly - Huong lua mien nam
TTITLE3=Quoc Dai - Ruot tim bam gan
TTITLE4=Anh di giu vuon
TTITLE5=Cam ly - Cha gia
TTITLE6=Quoc Dai - Nho ai
TTITLE7=Tien nguoi sang ngang
TTITLE8=Quoc Dai - Da trang bien dong
TTITLE9=Cam ly - Co tu banh tet
EXTD=
EXTT0=
EXTT1=
EXTT2=
EXTT3=
EXTT4=
EXTT5=
EXTT6=
EXTT7=
EXTT8=
EXTT9=
PLAYORDER=
